<svg xmlns="http://www.w3.org/2000/svg" viewBox="0 0 2048 2048">
  <defs>
    <mask id="reveal" maskUnits="userSpaceOnUse" x="0" y="0" width="2048" height="2048">
      <path d="M1014.0,299.0 Q1013.0,330.0 1011.5,332.0 Q1010.0,334.0 998.0,346.5 Q986.0,359.0 981.0,362.0 Q976.0,365.0 956.0,385.0 Q936.0,405.0 930.5,408.5 Q925.0,412.0 892.0,443.5 Q859.0,475.0 810.0,523.5 Q761.0,572.0 750.0,603.0 T739.0,634.0" fill="none" stroke="#fff" stroke-width="271" stroke-linecap="round" stroke-linejoin="round" pathLength="100" stroke-dasharray="100" stroke-dashoffset="100"><animate attributeName="stroke-dashoffset" dur="3s" repeatCount="indefinite" calcMode="spline" values="100;0;0;100;100" keyTimes="0;0.0700;0.9308;0.9500;1" keySplines="0.65 0 0.35 1;0 0 1 1;0.65 0 0.35 1;0 0 1 1"/></path>
      <path d="M738.0,635.0 Q683.0,653.0 678.0,655.5 Q673.0,658.0 663.0,666.5 Q653.0,675.0 651.5,677.5 Q650.0,680.0 630.0,699.5 Q610.0,719.0 599.5,728.0 Q589.0,737.0 588.0,739.0 Q587.0,741.0 566.5,760.5 Q546.0,780.0 539.0,788.0 Q532.0,796.0 521.0,828.5 T510.0,861.0" fill="none" stroke="#fff" stroke-width="271" stroke-linecap="round" stroke-linejoin="round" pathLength="100" stroke-dasharray="100" stroke-dashoffset="100"><animate attributeName="stroke-dashoffset" dur="3s" repeatCount="indefinite" calcMode="spline" values="100;100;0;0;100;100" keyTimes="0;0.0423;0.1123;0.9115;0.9500;1" keySplines="0 0 1 1;0.65 0 0.35 1;0 0 1 1;0.65 0 0.35 1;0 0 1 1"/></path>
      <path d="M739.0,635.0 Q760.0,658.0 801.5,699.0 Q843.0,740.0 853.5,747.0 Q864.0,754.0 879.0,758.5 Q894.0,763.0 908.5,764.5 Q923.0,766.0 944.5,765.5 Q966.0,765.0 972.5,764.0 Q979.0,763.0 994.5,758.5 Q1010.0,754.0 1027.0,743.5 Q1044.0,733.0 1073.0,723.5 T1102.0,714.0" fill="none" stroke="#fff" stroke-width="271" stroke-linecap="round" stroke-linejoin="round" pathLength="100" stroke-dasharray="100" stroke-dashoffset="100"><animate attributeName="stroke-dashoffset" dur="3s" repeatCount="indefinite" calcMode="spline" values="100;100;0;0;100;100" keyTimes="0;0.0846;0.1546;0.8923;0.9423;1" keySplines="0 0 1 1;0.65 0 0.35 1;0 0 1 1;0.65 0 0.35 1;0 0 1 1"/></path>
      <path d="M1102.0,714.0 Q1121.0,659.0 1124.0,654.5 Q1127.0,650.0 1161.5,615.5 Q1196.0,581.0 1203.0,575.5 Q1210.0,570.0 1223.5,564.0 Q1237.0,558.0 1249.5,555.5 Q1262.0,553.0 1274.5,552.0 Q1287.0,551.0 1357.5,551.5 Q1428.0,552.0 1443.0,554.0 Q1458.0,556.0 1459.0,557.0 Q1460.0,558.0 1468.0,560.0 Q1476.0,562.0 1481.0,564.5 Q1486.0,567.0 1496.0,574.5 Q1506.0,582.0 1572.0,648.0 Q1638.0,714.0 1642.0,719.0 Q1646.0,724.0 1649.0,730.0 Q1652.0,736.0 1657.5,755.0 Q1663.0,774.0 1663.5,948.0 Q1664.0,1122.0 1662.5,1132.5 Q1661.0,1143.0 1658.5,1151.0 Q1656.0,1159.0 1653.0,1165.0 Q1650.0,1171.0 1647.5,1173.0 Q1645.0,1175.0 1617.0,1184.5 T1589.0,1194.0" fill="none" stroke="#fff" stroke-width="271" stroke-linecap="round" stroke-linejoin="round" pathLength="100" stroke-dasharray="100" stroke-dashoffset="100"><animate attributeName="stroke-dashoffset" dur="3s" repeatCount="indefinite" calcMode="spline" values="100;100;0;0;100;100" keyTimes="0;0.1269;0.1969;0.8731;0.9231;1" keySplines="0 0 1 1;0.65 0 0.35 1;0 0 1 1;0.65 0 0.35 1;0 0 1 1"/></path>
      <path d="M1102.0,714.0 Q1119.0,731.0 1123.0,736.5 Q1127.0,742.0 1150.5,764.5 Q1174.0,787.0 1180.0,794.5 Q1186.0,802.0 1195.5,831.0 T1205.0,860.0" fill="none" stroke="#fff" stroke-width="271" stroke-linecap="round" stroke-linejoin="round" pathLength="100" stroke-dasharray="100" stroke-dashoffset="100"><animate attributeName="stroke-dashoffset" dur="3s" repeatCount="indefinite" calcMode="spline" values="100;100;0;0;100;100" keyTimes="0;0.1692;0.2392;0.8538;0.9038;1" keySplines="0 0 1 1;0.65 0 0.35 1;0 0 1 1;0.65 0 0.35 1;0 0 1 1"/></path>
      <path d="M1206.0,861.0 Q1266.0,881.0 1272.5,886.0 Q1279.0,891.0 1414.0,1025.0 Q1549.0,1159.0 1557.0,1166.0 Q1565.0,1173.0 1567.5,1174.0 Q1570.0,1175.0 1579.5,1184.5 T1589.0,1194.0" fill="none" stroke="#fff" stroke-width="271" stroke-linecap="round" stroke-linejoin="round" pathLength="100" stroke-dasharray="100" stroke-dashoffset="100"><animate attributeName="stroke-dashoffset" dur="3s" repeatCount="indefinite" calcMode="spline" values="100;100;0;0;100;100" keyTimes="0;0.2115;0.2815;0.8346;0.8846;1" keySplines="0 0 1 1;0.65 0 0.35 1;0 0 1 1;0.65 0 0.35 1;0 0 1 1"/></path>
      <path d="M1205.0,861.0 L882.0,1180.0" fill="none" stroke="#fff" stroke-width="271" stroke-linecap="round" stroke-linejoin="round" pathLength="100" stroke-dasharray="100" stroke-dashoffset="100"><animate attributeName="stroke-dashoffset" dur="3s" repeatCount="indefinite" calcMode="spline" values="100;100;0;0;100;100" keyTimes="0;0.2538;0.3238;0.8154;0.8654;1" keySplines="0 0 1 1;0.65 0 0.35 1;0 0 1 1;0.65 0 0.35 1;0 0 1 1"/></path>
      <path d="M510.0,862.0 Q527.0,879.0 533.0,881.5 Q539.0,884.0 543.0,887.0 Q547.0,890.0 679.0,1022.0 Q811.0,1154.0 816.5,1157.5 Q822.0,1161.0 851.5,1170.5 T881.0,1180.0" fill="none" stroke="#fff" stroke-width="271" stroke-linecap="round" stroke-linejoin="round" pathLength="100" stroke-dasharray="100" stroke-dashoffset="100"><animate attributeName="stroke-dashoffset" dur="3s" repeatCount="indefinite" calcMode="spline" values="100;100;0;0;100;100" keyTimes="0;0.2962;0.3662;0.7962;0.8462;1" keySplines="0 0 1 1;0.65 0 0.35 1;0 0 1 1;0.65 0 0.35 1;0 0 1 1"/></path>
      <path d="M882.0,1181.0 Q891.0,1212.0 897.0,1228.0 Q903.0,1244.0 933.5,1274.5 Q964.0,1305.0 966.0,1308.5 Q968.0,1312.0 975.5,1319.5 T983.0,1327.0" fill="none" stroke="#fff" stroke-width="271" stroke-linecap="round" stroke-linejoin="round" pathLength="100" stroke-dasharray="100" stroke-dashoffset="100"><animate attributeName="stroke-dashoffset" dur="3s" repeatCount="indefinite" calcMode="spline" values="100;100;0;0;100;100" keyTimes="0;0.3385;0.4085;0.7769;0.8269;1" keySplines="0 0 1 1;0.65 0 0.35 1;0 0 1 1;0.65 0 0.35 1;0 0 1 1"/></path>
      <path d="M509.0,862.0 Q460.0,878.0 456.5,882.5 Q453.0,887.0 450.5,895.0 Q448.0,903.0 445.5,927.0 Q443.0,951.0 443.0,1039.0 Q443.0,1127.0 444.0,1168.0 Q445.0,1209.0 448.5,1230.0 Q452.0,1251.0 456.5,1260.5 Q461.0,1270.0 467.5,1278.5 Q474.0,1287.0 556.5,1369.5 Q639.0,1452.0 648.0,1459.0 Q657.0,1466.0 664.0,1469.0 Q671.0,1472.0 688.5,1475.5 Q706.0,1479.0 764.0,1479.5 Q822.0,1480.0 842.0,1476.5 Q862.0,1473.0 864.0,1471.5 Q866.0,1470.0 869.5,1469.5 Q873.0,1469.0 877.0,1467.0 Q881.0,1465.0 887.5,1460.5 Q894.0,1456.0 926.5,1424.5 Q959.0,1393.0 962.0,1388.0 Q965.0,1383.0 974.0,1355.5 T983.0,1328.0" fill="none" stroke="#fff" stroke-width="271" stroke-linecap="round" stroke-linejoin="round" pathLength="100" stroke-dasharray="100" stroke-dashoffset="100"><animate attributeName="stroke-dashoffset" dur="3s" repeatCount="indefinite" calcMode="spline" values="100;100;0;0;100;100" keyTimes="0;0.3808;0.4508;0.7577;0.8077;1" keySplines="0 0 1 1;0.65 0 0.35 1;0 0 1 1;0.65 0 0.35 1;0 0 1 1"/></path>
      <path d="M984.0,1327.0 Q1041.0,1309.0 1058.0,1299.5 Q1075.0,1290.0 1090.0,1286.5 Q1105.0,1283.0 1118.5,1281.5 Q1132.0,1280.0 1142.5,1280.0 Q1153.0,1280.0 1174.0,1283.5 Q1195.0,1287.0 1204.5,1291.5 Q1214.0,1296.0 1222.0,1302.5 Q1230.0,1309.0 1279.0,1357.5 Q1328.0,1406.0 1338.5,1417.5 T1349.0,1429.0" fill="none" stroke="#fff" stroke-width="271" stroke-linecap="round" stroke-linejoin="round" pathLength="100" stroke-dasharray="100" stroke-dashoffset="100"><animate attributeName="stroke-dashoffset" dur="3s" repeatCount="indefinite" calcMode="spline" values="100;100;0;0;100;100" keyTimes="0;0.4231;0.4931;0.7385;0.7885;1" keySplines="0 0 1 1;0.65 0 0.35 1;0 0 1 1;0.65 0 0.35 1;0 0 1 1"/></path>
      <path d="M1589.0,1194.0 Q1566.0,1260.0 1550.5,1276.5 Q1535.0,1293.0 1531.5,1295.5 Q1528.0,1298.0 1510.0,1316.5 Q1492.0,1335.0 1454.5,1370.5 Q1417.0,1406.0 1413.5,1408.0 Q1410.0,1410.0 1380.0,1419.5 T1350.0,1429.0" fill="none" stroke="#fff" stroke-width="271" stroke-linecap="round" stroke-linejoin="round" pathLength="100" stroke-dasharray="100" stroke-dashoffset="100"><animate attributeName="stroke-dashoffset" dur="3s" repeatCount="indefinite" calcMode="spline" values="100;100;0;0;100;100" keyTimes="0;0.4654;0.5354;0.7192;0.7692;1" keySplines="0 0 1 1;0.65 0 0.35 1;0 0 1 1;0.65 0 0.35 1;0 0 1 1"/></path>
      <path d="M1349.0,1430.0 Q1329.0,1490.0 1326.5,1493.5 Q1324.0,1497.0 1276.5,1543.0 Q1229.0,1589.0 1186.0,1632.5 Q1143.0,1676.0 1139.5,1676.5 T1136.0,1677.0" fill="none" stroke="#fff" stroke-width="271" stroke-linecap="round" stroke-linejoin="round" pathLength="100" stroke-dasharray="100" stroke-dashoffset="100"><animate attributeName="stroke-dashoffset" dur="3s" repeatCount="indefinite" calcMode="spline" values="100;100;0;0;100;100" keyTimes="0;0.5077;0.5500;0.7000;0.7500;1" keySplines="0 0 1 1;0.65 0 0.35 1;0 0 1 1;0.65 0 0.35 1;0 0 1 1"/></path>
    </mask>
  </defs>
  <path d="M1004.5 214.9c-1.1.5-4.4 1-7.3 1-4.8.1-18 3.7-22.4 6.1-1 .6-2.4 1-3.3 1-.8 0-3 .9-5 2s-4 2-4.5 2-3.4 1.6-6.4 3.5-5.9 3.5-6.5 3.5c-.5 0-1.1.3-1.3.7-.1.5-2.8 2.7-5.8 4.9-5.6 4.3-12.4 10.6-17.3 16.2-2.6 3.1-11.7 16.7-11.7 17.7 0 .2-1.3 2.6-2.8 5.2-1.6 2.6-3.7 7.3-4.7 10.3s-2.1 6.4-2.5 7.5c-2 5.1-2.4 6.3-3.2 11.5-2.4 14.9-2.7 19.4-2.1 29.8.3 6.2 1 11.5 1.4 11.8.5.3.9 1.7.9 3.1 0 2.7 1.6 8.4 3.1 11.5 1.4 2.9 1 5.8-1.2 9.1-2.2 3.2-5.9 6.9-25.4 25.5-5.5 5.2-17.2 16.4-26 24.9-17.7 17-28.3 27.2-42.6 40.8-5.2 4.9-20.5 19.6-33.9 32.5s-28.7 27.5-33.9 32.5c-5.2 4.9-12.3 11.7-15.6 15-24.8 24.4-57.7 56.6-77.8 76-13.1 12.6-32.9 31.9-44 42.8s-24.5 23.9-29.7 29c-15 14.4-56.5 54.3-66.4 63.7-4.9 4.7-13.7 13.2-19.5 19s-19.6 19-30.6 29.4c-33.8 32.1-39.9 38.9-47.2 53.1-3.7 7.3-7.4 22.8-9 38-1.3 12.4-.8 337.8.5 348 2.2 16.7 2.4 18 3.2 19 .4.5 1 2.7 1.4 4.7 1 5.4 9.2 21.5 14 27.3 8.2 9.9 10.6 12.5 42.9 44.5 18 17.9 61.9 61.5 97.5 97s66.3 65.7 68.2 67.2 5.1 4.1 7 5.8c4.2 3.8 20.8 12 24.2 12 1.3 0 2.8.4 3.4.9 3.1 3 36.4 3.9 125.2 3.6 56.3-.2 78.7-.6 79.5-1.4.6-.6 2.3-1.1 3.8-1.1s3.1-.5 3.4-1c.3-.6 1.9-1 3.6-1 1.6 0 3.7-.4 4.7-1 .9-.5 4.4-2.2 7.7-3.7 7.9-3.7 9.5-4.6 9.5-5.5 0-.5.6-.8 1.4-.8s1.6-.3 1.8-.8c.2-.4 2.2-2.1 4.6-3.8 4.1-3 51.5-48.6 61.1-58.8 6.3-6.7 4.2-4.7 47.6-47.1 21.4-20.9 42.1-41.2 46-45 15.8-15.8 18.8-18 32.5-24.3 7.1-3.2 9.7-3.5 42-3.9 31.6-.4 34.3-.2 42.3 3.8 2.2 1 4.3 1.9 4.9 1.9 1 0 10.7 6.7 11.8 8.1.3.3 1 .8 1.7 1 3.5 1.2 85.7 82.9 92.4 91.8 5.6 7.6 6.9 11.2 6.9 19.5 0 10.9-.7 11.7-36.9 46.6-10.6 10.2-25.5 24.6-33.1 32.2-16.1 15.7-23.3 21.6-31 25.3-3 1.5-6.3 3.1-7.2 3.6-1 .5-2.8.9-4.1.9s-4.5.7-7.2 1.6c-5.3 1.8-20.5 1.5-25.8-.5-4.3-1.6-23.6-1.3-26.7.4-1.4.8-4 1.4-5.9 1.5-3.4 0-9 1.4-12.3 3.1-1 .5-2.5.9-3.3.9s-2.3.4-3.3.9c-.9.5-4.6 2.3-8.2 4-6.7 3.2-12.1 6.2-13 7.2-.3.3-2.5 1.9-5 3.6-4.9 3.4-18.8 17.4-23.8 23.9-9.3 12.2-18.6 32.9-21.3 47.4-3.1 17-1.7 42 3.3 57.4 5.7 17.4 17.2 35 31.9 48.7 11.8 11 14 12.6 26.6 18.5 12.8 6 12.8 6 19.8 8 3.3.9 6.9 2.1 8 2.6 2.6 1.2 44.5.4 51-1 5.4-1.1 12-3.4 13.1-4.5.4-.4 1.5-.7 2.5-.7 2.2 0 12-5.1 18.1-9.6 2.6-1.9 5-3.4 5.2-3.4.3 0 3.9-2.5 8.1-5.6 11.8-8.9 26.2-27.9 32.5-43.1 1.7-4.3 3.8-9.1 4.6-10.7s1.4-4.4 1.4-6.2.4-3.5.9-3.8 1.2-2.5 1.6-4.8c1.1-6.2 1.1-34.1.1-42.6-.9-7 .3-18.3 2.4-23.7 2.5-6.4 3.4-8.1 7.1-13.1 2.2-3 14.7-16.1 27.8-29.2 22.8-22.7 31.7-31.4 79.1-77.2 11.7-11.3 25.4-24.6 30.5-29.5 12.6-12.3 33-31.9 39.6-38.1 3-2.8 7-6.7 8.9-8.8 5.4-5.7 47.3-46.5 62.2-60.6 7.3-6.9 18.1-17.2 24-23s20.7-20.2 32.9-32c36.2-35.2 67-65.3 70.3-68.9 3-3.2 6.8-7 33.4-33.1 7.1-6.9 14.6-15.2 16.9-18.5 4.9-7.2 10.6-18.4 12.3-24 .6-2.2 1.7-5.4 2.3-7 1.5-3.8 2.2-412.7.8-422-2-12.1-2.5-13.9-8.4-26.5-2.4-5-9.6-15.7-14.2-20.9-1.6-1.9-16.9-17.3-34-34.1-17-16.9-32.3-32.1-34-33.8-7.7-7.8-37.6-37.4-51.8-51.3-8.8-8.5-17.1-16.7-18.5-18.4-1.5-1.6-5.4-5.5-8.7-8.5-3.2-3-9.3-8.9-13.5-13.2-4.1-4.2-10.1-9.8-13.2-12.6-8.4-7.2-23.1-14-34.3-15.8-1.6-.3-3.9-.9-5-1.4-4.5-2-17.6-2.3-120.5-2.3s-122.3.4-124.4 2.4c-.6.5-2.2.9-3.6.9-2.4 0-8.3 2.4-17 6.9-15.7 8.1-21.3 12.9-65.6 56.6-22.5 22.2-39.7 38.9-67.3 65.5-11.8 11.3-29 28.1-38.5 37.4-17.4 17.1-28.8 27.6-32.8 30.4-1.3.9-2.9 2.2-3.6 2.9-1.9 1.9-12 6.4-16.7 7.5-22.4 5.3-71.8 5.2-88.5-.1-3.5-1.1-12-5.1-13-6.1-.3-.3-1.7-1.2-3.2-2-2.3-1.3-21.6-19.5-50.9-48-4.8-4.7-11.9-11.4-15.6-15-8.2-7.8-14.8-16-16.9-20.9-1.7-4.1-2-14.9-.5-16.4.6-.6 1.1-1.9 1.1-2.9s.5-1.8 1-1.8c.6 0 1-.7 1-1.6 0-1.3 6.9-8.6 30.6-32.8.6-.6 11.6-11.2 24.4-23.6s27.2-26.3 32-31c4.7-4.7 17.1-16.6 27.5-26.5s24.6-23.6 31.5-30.5c15.8-15.8 20.1-19 24.7-19 1.9 0 8 2 10 3.3 1.7 1.1 9.9 2.8 15.8 3.3 2.8.3 5.9 1 7.1 1.5 3.1 1.6 39-.4 40.9-2.2.5-.5 1.7-.9 2.6-.9s3-.7 4.5-1.5c1.6-.8 3.6-1.5 4.5-1.5.8 0 3.4-.9 5.7-2 2.2-1.1 4.6-2 5.2-2s4-2 7.4-4.5c3.5-2.5 6.7-4.5 7.1-4.5 1.3 0 15.1-11.9 21.4-18.5 6.3-6.7 19.1-25.6 19.1-28.2 0-.8.6-2.4 1.4-3.6 2.2-3.4 6.5-16.5 7.8-23.7 2.4-12.9 1.2-42.1-2.2-55.5-2-7.9-12.3-28.3-18.2-36-7.6-10-24.3-26.5-26.8-26.5-.5 0-1-.3-1-.8 0-.4-1-1.2-2.3-1.9-16.6-8.6-20.2-10.3-21.4-10.3-1.3 0-2.4-.4-7-2.8-1.3-.7-2.8-1.2-3.4-1.2s-2.5-.6-4.2-1.4c-1.8-.8-8.1-1.7-14.2-2-6-.3-13.2-.8-16-1.1-2.7-.2-5.9-.1-7 .4m429 383.9c9.9 1.1 18.7 3.1 23.6 5.6 1.8.9 3.6 1.6 4.1 1.6 3.1 0 19.8 13.7 29.8 24.4 6.4 6.9 42.4 42.4 62.1 61.2 3.5 3.4 8.5 8.4 11 11 2.6 2.7 8.6 8.7 13.5 13.4 15.6 14.9 27.8 28.5 31.3 35.1 4.7 8.8 6.3 14.2 8.2 28.4.5 3.8 1.4 10.6 2.1 15 1.6 11.2 1.7 314.4.1 323-2.5 13.1-4.3 17.6-8.1 20.4-6.1 4.3-15.5 1.9-24.2-6-9.2-8.4-51.3-49.4-83-80.9-18-17.9-38.9-38.7-46.6-46.2-7.6-7.5-16.9-16.7-20.6-20.5-3.7-3.7-18.2-18.1-32.3-31.8-14-13.8-44.6-43.9-67.9-67s-45.9-45.4-50.2-49.5c-4.3-4.2-9.7-9.5-11.9-11.9-4.8-5.1-99.7-99.2-108.2-107.2-11.9-11.3-13.4-21.9-4.9-34.9 3.6-5.7 66.5-68.5 72.8-72.8 2.6-1.8 5.4-3.2 6.2-3.2.9 0 1.6-.5 1.6-1 0-.6.9-1 2-1s2.8-.4 3.8-.9c4.4-2.2 12.5-4.1 17.3-4.2 3 0 6.3-.4 7.4-.9 2.7-1.2 149.4-.4 161 .8M729.3 693c3 1.8 11.6 9.3 19.3 16.7 15.9 15.4 53.4 52.6 59.8 59.3 5 5.3 21.1 20.6 24.7 23.5 4.1 3.4 11.2 8 14.9 9.7 13.9 6.3 13.7 6.3 26 8 9.6 1.4 113 1.4 125.5 0 10.1-1.1 14.3-2 15.1-3.3.3-.5 1.2-.9 1.9-.9 4.8 0 23.6-11.6 35.1-21.7 3.4-2.9 6.4-5.3 6.8-5.3s1.9-1.1 3.4-2.5c4-3.8 13.7-8.5 17.3-8.5 4.5 0 12.7 3.1 15.9 6 1.5 1.4 4.9 4.3 7.6 6.5 7.4 6.1 39.6 38.4 43.3 43.5 4.2 5.9 7.1 12.5 7.1 16.4 0 3-2 9.8-4.2 14-1.2 2.4-41.8 43-72.3 72.1-11.4 11-31.1 30.1-43.6 42.5-86 85.2-149.9 148.3-152.4 150.5-5.1 4.4-13.7 7.5-20.8 7.5-8.4 0-14.5-3.7-28.5-17.2-6.9-6.8-14.9-14.8-17.7-17.8-2.7-3-8.3-8.6-12.4-12.5-4.1-3.8-9.5-9.2-12-11.9-6.3-6.7-49-49.2-96.7-96.1-21.7-21.5-47.7-47.3-57.7-57.4s-20.4-20.4-23.2-23c-16.9-15.6-41.3-41-42.4-44.1-.7-1.9-1.7-4.3-2.2-5.2-1.4-2.8-1-10.6.7-14.1 3.2-6.2 12.3-15.9 41.9-44.9 16.5-16.1 34.1-33.3 39-38.3 14.6-14.6 46-44.8 49.1-47.3 1.6-1.3 4.3-2.9 5.9-3.7 11.3-5.4 17.5-5.5 25.8-.5m509.5 224.8c4 2 16.1 13.5 50 47.2 24.6 24.5 47.9 47.5 51.7 51.2 3.9 3.6 11.4 11.1 16.9 16.7 5.4 5.6 9.9 10.1 10 10.1.3 0 70.6 69.3 109.1 107.5 23.7 23.5 45.3 45 48.2 47.7 7.3 7.1 10.3 13.4 10.3 21.3 0 10.4-2.2 13.9-17.9 29.4-17.1 16.8-71.2 69.5-91.4 89.1-8.2 8-18.2 17.7-22.1 21.5-9.3 9.2-17.2 15.1-21.6 16-7.5 1.4-13.2 1.7-14.3.6-.6-.6-1.7-1.1-2.5-1.1-2.6 0-11.4-7.1-22.2-17.7-94.7-93.2-107.2-105.3-108.5-105.3-.7 0-1.5-.4-1.7-.9-.4-1.3-15.6-10.1-17.3-10.1-.9 0-2.3-.4-3.3-.9-.9-.5-3.5-1.4-5.7-1.9-2.2-.6-5.8-1.5-8-2.1-5.8-1.5-104.9-1.7-109.5-.2-1.9.6-5.2 1.1-7.2 1.1s-4 .4-4.3 1c-.3.5-2.1 1-4 1s-3.7.4-4 1c-.3.5-1.7 1-3.1 1-1.3 0-2.4.4-2.4 1 0 .5-.6 1-1.4 1-3.5 0-23.7 13.3-31.6 20.8-3.9 3.7-13.7 10.2-15.4 10.2-.8 0-2.7.5-4.1 1.2-3.6 1.6-9.4-.5-18.7-6.9-8.5-5.9-48.9-45.5-53.5-52.4-2.5-3.8-2.8-5.1-2.8-12.9 0-9 .5-10.4 7.2-19.3 2.2-2.8 63.6-64 93.8-93.3 21.5-20.9 43.2-42.4 134.1-132.6 21-20.8 38.6-37.8 39.2-37.8s1.2-.3 1.4-.8c.9-2.1 7.8-4.1 14.3-4.1 5.7-.1 8 .4 12.3 2.7m-727.2 1.7c2.8 1.4 78.5 76.4 79.2 78.5.2.6.7 1 1.1 1 .5 0 14 13.3 30.2 29.6s32.7 32.8 36.8 36.7c4 4 12.8 12.8 19.5 19.6 24.9 25.5 172.8 172.9 206.7 206.1 44.9 43.9 41.7 40.6 44.5 46.8 3 6.5 3.1 13.4.4 19-1.1 2.2-2 4.5-2 5 0 .9-2.4 3.3-22.4 22.3-4.8 4.6-14.1 13.6-20.5 20-11 11-23 20.9-25.1 20.9-.6 0-1 .3-1 .8 0 1.5-10.9 6.2-14.3 6.2-1.3 0-2.7.4-3.2.9-1.9 1.8-15.5 2.3-73.9 2.7-39.2.3-59.3.1-60-.6-.5-.5-3.1-1-5.7-1s-5.1-.5-5.4-1c-.3-.6-1.6-1-2.9-1-2.8 0-13.7-5.2-15.5-7.4-.7-.9-2-1.6-2.7-1.6-.8 0-1.4-.5-1.4-1 0-.6-.5-1-1.1-1-1.1 0-30-28.2-58.8-57.4-9.7-9.9-31.3-31.5-48-48-16.8-16.6-33-32.6-36-35.6-8.9-8.9-22.2-23.7-25.9-28.8-4.2-5.8-8.8-15.6-9.7-20.2-.3-1.9-1-6-1.6-9-2.6-14.3-4.6-182.4-2.9-245 1.3-45.9 2.1-51.6 7.9-56.7 3.1-2.7 9.3-3.1 13.7-.8" fill="#275b4f" mask="url(#reveal)"/>
</svg>
