<svg xmlns="http://www.w3.org/2000/svg" viewBox="0 0 2048 2048">
  <title>SADN</title>
  <path fill="#275b4f" d="M1004.5 214.9c-1.1.5-4.4 1-7.3 1-4.8.1-18 3.7-22.4 6.1-1 .6-2.4 1-3.3 1-.8 0-3 .9-5 2s-4 2-4.5 2-3.4 1.6-6.4 3.5-5.9 3.5-6.5 3.5c-.5 0-1.1.3-1.3.7-.1.5-2.8 2.7-5.8 4.9-5.6 4.3-12.4 10.6-17.3 16.2-2.6 3.1-11.7 16.7-11.7 17.7 0 .2-1.3 2.6-2.8 5.2-1.6 2.6-3.7 7.3-4.7 10.3s-2.1 6.4-2.5 7.5c-2 5.1-2.4 6.3-3.2 11.5-2.4 14.9-2.7 19.4-2.1 29.8.3 6.2 1 11.5 1.4 11.8.5.3.9 1.7.9 3.1 0 2.7 1.6 8.4 3.1 11.5 1.4 2.9 1 5.8-1.2 9.1-2.2 3.2-5.9 6.9-25.4 25.5-5.5 5.2-17.2 16.4-26 24.9-17.7 17-28.3 27.2-42.6 40.8-5.2 4.9-20.5 19.6-33.9 32.5s-28.7 27.5-33.9 32.5c-5.2 4.9-12.3 11.7-15.6 15-24.8 24.4-57.7 56.6-77.8 76-13.1 12.6-32.9 31.9-44 42.8s-24.5 23.9-29.7 29c-15 14.4-56.5 54.3-66.4 63.7-4.9 4.7-13.7 13.2-19.5 19s-19.6 19-30.6 29.4c-33.8 32.1-39.9 38.9-47.2 53.1-3.7 7.3-7.4 22.8-9 38-1.3 12.4-.8 337.8.5 348 2.2 16.7 2.4 18 3.2 19 .4.5 1 2.7 1.4 4.7 1 5.4 9.2 21.5 14 27.3 8.2 9.9 10.6 12.5 42.9 44.5 18 17.9 61.9 61.5 97.5 97s66.3 65.7 68.2 67.2 5.1 4.1 7 5.8c4.2 3.8 20.8 12 24.2 12 1.3 0 2.8.4 3.4.9 3.1 3 36.4 3.9 125.2 3.6 56.3-.2 78.7-.6 79.5-1.4.6-.6 2.3-1.1 3.8-1.1s3.1-.5 3.4-1c.3-.6 1.9-1 3.6-1 1.6 0 3.7-.4 4.7-1 .9-.5 4.4-2.2 7.7-3.7 7.9-3.7 9.5-4.6 9.5-5.5 0-.5.6-.8 1.4-.8s1.6-.3 1.8-.8c.2-.4 2.2-2.1 4.6-3.8 4.1-3 51.5-48.6 61.1-58.8 6.3-6.7 4.2-4.7 47.6-47.1 21.4-20.9 42.1-41.2 46-45 15.8-15.8 18.8-18 32.5-24.3 7.1-3.2 9.7-3.5 42-3.9 31.6-.4 34.3-.2 42.3 3.8 2.2 1 4.3 1.9 4.9 1.9 1 0 10.7 6.7 11.8 8.1.3.3 1 .8 1.7 1 3.5 1.2 85.7 82.9 92.4 91.8 5.6 7.6 6.9 11.2 6.9 19.5 0 10.9-.7 11.7-36.9 46.6-10.6 10.2-25.5 24.6-33.1 32.2-16.1 15.7-23.3 21.6-31 25.3-3 1.5-6.3 3.1-7.2 3.6-1 .5-2.8.9-4.1.9s-4.5.7-7.2 1.6c-5.3 1.8-20.5 1.5-25.8-.5-4.3-1.6-23.6-1.3-26.7.4-1.4.8-4 1.4-5.9 1.5-3.4 0-9 1.4-12.3 3.1-1 .5-2.5.9-3.3.9s-2.3.4-3.3.9c-.9.5-4.6 2.3-8.2 4-6.7 3.2-12.1 6.2-13 7.2-.3.3-2.5 1.9-5 3.6-4.9 3.4-18.8 17.4-23.8 23.9-9.3 12.2-18.6 32.9-21.3 47.4-3.1 17-1.7 42 3.3 57.4 5.7 17.4 17.2 35 31.9 48.7 11.8 11 14 12.6 26.6 18.5 12.8 6 12.8 6 19.8 8 3.3.9 6.9 2.1 8 2.6 2.6 1.2 44.5.4 51-1 5.4-1.1 12-3.4 13.1-4.5.4-.4 1.5-.7 2.5-.7 2.2 0 12-5.1 18.1-9.6 2.6-1.9 5-3.4 5.2-3.4.3 0 3.9-2.5 8.1-5.6 11.8-8.9 26.2-27.9 32.5-43.1 1.7-4.3 3.8-9.1 4.6-10.7s1.4-4.4 1.4-6.2.4-3.5.9-3.8 1.2-2.5 1.6-4.8c1.1-6.2 1.1-34.1.1-42.6-.9-7 .3-18.3 2.4-23.7 2.5-6.4 3.4-8.1 7.1-13.1 2.2-3 14.7-16.1 27.8-29.2 22.8-22.7 31.7-31.4 79.1-77.2 11.7-11.3 25.4-24.6 30.5-29.5 12.6-12.3 33-31.9 39.6-38.1 3-2.8 7-6.7 8.9-8.8 5.4-5.7 47.3-46.5 62.2-60.6 7.3-6.9 18.1-17.2 24-23s20.7-20.2 32.9-32c36.2-35.2 67-65.3 70.3-68.9 3-3.2 6.8-7 33.4-33.1 7.1-6.9 14.6-15.2 16.9-18.5 4.9-7.2 10.6-18.4 12.3-24 .6-2.2 1.7-5.4 2.3-7 1.5-3.8 2.2-412.7.8-422-2-12.1-2.5-13.9-8.4-26.5-2.4-5-9.6-15.7-14.2-20.9-1.6-1.9-16.9-17.3-34-34.1-17-16.9-32.3-32.1-34-33.8-7.7-7.8-37.6-37.4-51.8-51.3-8.8-8.5-17.1-16.7-18.5-18.4-1.5-1.6-5.4-5.5-8.7-8.5-3.2-3-9.3-8.9-13.5-13.2-4.1-4.2-10.1-9.8-13.2-12.6-8.4-7.2-23.1-14-34.3-15.8-1.6-.3-3.9-.9-5-1.4-4.5-2-17.6-2.3-120.5-2.3s-122.3.4-124.4 2.4c-.6.5-2.2.9-3.6.9-2.4 0-8.3 2.4-17 6.9-15.7 8.1-21.3 12.9-65.6 56.6-22.5 22.2-39.7 38.9-67.3 65.5-11.8 11.3-29 28.1-38.5 37.4-17.4 17.1-28.8 27.6-32.8 30.4-1.3.9-2.9 2.2-3.6 2.9-1.9 1.9-12 6.4-16.7 7.5-22.4 5.3-71.8 5.2-88.5-.1-3.5-1.1-12-5.1-13-6.1-.3-.3-1.7-1.2-3.2-2-2.3-1.3-21.6-19.5-50.9-48-4.8-4.7-11.9-11.4-15.6-15-8.2-7.8-14.8-16-16.9-20.9-1.7-4.1-2-14.9-.5-16.4.6-.6 1.1-1.9 1.1-2.9s.5-1.8 1-1.8c.6 0 1-.7 1-1.6 0-1.3 6.9-8.6 30.6-32.8.6-.6 11.6-11.2 24.4-23.6s27.2-26.3 32-31c4.7-4.7 17.1-16.6 27.5-26.5s24.6-23.6 31.5-30.5c15.8-15.8 20.1-19 24.7-19 1.9 0 8 2 10 3.3 1.7 1.1 9.9 2.8 15.8 3.3 2.8.3 5.9 1 7.1 1.5 3.1 1.6 39-.4 40.9-2.2.5-.5 1.7-.9 2.6-.9s3-.7 4.5-1.5c1.6-.8 3.6-1.5 4.5-1.5.8 0 3.4-.9 5.7-2 2.2-1.1 4.6-2 5.2-2s4-2 7.4-4.5c3.5-2.5 6.7-4.5 7.1-4.5 1.3 0 15.1-11.9 21.4-18.5 6.3-6.7 19.1-25.6 19.1-28.2 0-.8.6-2.4 1.4-3.6 2.2-3.4 6.5-16.5 7.8-23.7 2.4-12.9 1.2-42.1-2.2-55.5-2-7.9-12.3-28.3-18.2-36-7.6-10-24.3-26.5-26.8-26.5-.5 0-1-.3-1-.8 0-.4-1-1.2-2.3-1.9-16.6-8.6-20.2-10.3-21.4-10.3-1.3 0-2.4-.4-7-2.8-1.3-.7-2.8-1.2-3.4-1.2s-2.5-.6-4.2-1.4c-1.8-.8-8.1-1.7-14.2-2-6-.3-13.2-.8-16-1.1-2.7-.2-5.9-.1-7 .4m429 383.9c9.9 1.1 18.7 3.1 23.6 5.6 1.8.9 3.6 1.6 4.1 1.6 3.1 0 19.8 13.7 29.8 24.4 6.4 6.9 42.4 42.4 62.1 61.2 3.5 3.4 8.5 8.4 11 11 2.6 2.7 8.6 8.7 13.5 13.4 15.6 14.9 27.8 28.5 31.3 35.1 4.7 8.8 6.3 14.2 8.2 28.4.5 3.8 1.4 10.6 2.1 15 1.6 11.2 1.7 314.4.1 323-2.5 13.1-4.3 17.6-8.1 20.4-6.1 4.3-15.5 1.9-24.2-6-9.2-8.4-51.3-49.4-83-80.9-18-17.9-38.9-38.7-46.6-46.2-7.6-7.5-16.9-16.7-20.6-20.5-3.7-3.7-18.2-18.1-32.3-31.8-14-13.8-44.6-43.9-67.9-67s-45.9-45.4-50.2-49.5c-4.3-4.2-9.7-9.5-11.9-11.9-4.8-5.1-99.7-99.2-108.2-107.2-11.9-11.3-13.4-21.9-4.9-34.9 3.6-5.7 66.5-68.5 72.8-72.8 2.6-1.8 5.4-3.2 6.2-3.2.9 0 1.6-.5 1.6-1 0-.6.9-1 2-1s2.8-.4 3.8-.9c4.4-2.2 12.5-4.1 17.3-4.2 3 0 6.3-.4 7.4-.9 2.7-1.2 149.4-.4 161 .8M729.3 693c3 1.8 11.6 9.3 19.3 16.7 15.9 15.4 53.4 52.6 59.8 59.3 5 5.3 21.1 20.6 24.7 23.5 4.1 3.4 11.2 8 14.9 9.7 13.9 6.3 13.7 6.3 26 8 9.6 1.4 113 1.4 125.5 0 10.1-1.1 14.3-2 15.1-3.3.3-.5 1.2-.9 1.9-.9 4.8 0 23.6-11.6 35.1-21.7 3.4-2.9 6.4-5.3 6.8-5.3s1.9-1.1 3.4-2.5c4-3.8 13.7-8.5 17.3-8.5 4.5 0 12.7 3.1 15.9 6 1.5 1.4 4.9 4.3 7.6 6.5 7.4 6.1 39.6 38.4 43.3 43.5 4.2 5.9 7.1 12.5 7.1 16.4 0 3-2 9.8-4.2 14-1.2 2.4-41.8 43-72.3 72.1-11.4 11-31.1 30.1-43.6 42.5-86 85.2-149.9 148.3-152.4 150.5-5.1 4.4-13.7 7.5-20.8 7.5-8.4 0-14.5-3.7-28.5-17.2-6.9-6.8-14.9-14.8-17.7-17.8-2.7-3-8.3-8.6-12.4-12.5-4.1-3.8-9.5-9.2-12-11.9-6.3-6.7-49-49.2-96.7-96.1-21.7-21.5-47.7-47.3-57.7-57.4s-20.4-20.4-23.2-23c-16.9-15.6-41.3-41-42.4-44.1-.7-1.9-1.7-4.3-2.2-5.2-1.4-2.8-1-10.6.7-14.1 3.2-6.2 12.3-15.9 41.9-44.9 16.5-16.1 34.1-33.3 39-38.3 14.6-14.6 46-44.8 49.1-47.3 1.6-1.3 4.3-2.9 5.9-3.7 11.3-5.4 17.5-5.5 25.8-.5m509.5 224.8c4 2 16.1 13.5 50 47.2 24.6 24.5 47.9 47.5 51.7 51.2 3.9 3.6 11.4 11.1 16.9 16.7 5.4 5.6 9.9 10.1 10 10.1.3 0 70.6 69.3 109.1 107.5 23.7 23.5 45.3 45 48.2 47.7 7.3 7.1 10.3 13.4 10.3 21.3 0 10.4-2.2 13.9-17.9 29.4-17.1 16.8-71.2 69.5-91.4 89.1-8.2 8-18.2 17.7-22.1 21.5-9.3 9.2-17.2 15.1-21.6 16-7.5 1.4-13.2 1.7-14.3.6-.6-.6-1.7-1.1-2.5-1.1-2.6 0-11.4-7.1-22.2-17.7-94.7-93.2-107.2-105.3-108.5-105.3-.7 0-1.5-.4-1.7-.9-.4-1.3-15.6-10.1-17.3-10.1-.9 0-2.3-.4-3.3-.9-.9-.5-3.5-1.4-5.7-1.9-2.2-.6-5.8-1.5-8-2.1-5.8-1.5-104.9-1.7-109.5-.2-1.9.6-5.2 1.1-7.2 1.1s-4 .4-4.3 1c-.3.5-2.1 1-4 1s-3.7.4-4 1c-.3.5-1.7 1-3.1 1-1.3 0-2.4.4-2.4 1 0 .5-.6 1-1.4 1-3.5 0-23.7 13.3-31.6 20.8-3.9 3.7-13.7 10.2-15.4 10.2-.8 0-2.7.5-4.1 1.2-3.6 1.6-9.4-.5-18.7-6.9-8.5-5.9-48.9-45.5-53.5-52.4-2.5-3.8-2.8-5.1-2.8-12.9 0-9 .5-10.4 7.2-19.3 2.2-2.8 63.6-64 93.8-93.3 21.5-20.9 43.2-42.4 134.1-132.6 21-20.8 38.6-37.8 39.2-37.8s1.2-.3 1.4-.8c.9-2.1 7.8-4.1 14.3-4.1 5.7-.1 8 .4 12.3 2.7m-727.2 1.7c2.8 1.4 78.5 76.4 79.2 78.5.2.6.7 1 1.1 1 .5 0 14 13.3 30.2 29.6s32.7 32.8 36.8 36.7c4 4 12.8 12.8 19.5 19.6 24.9 25.5 172.8 172.9 206.7 206.1 44.9 43.9 41.7 40.6 44.5 46.8 3 6.5 3.1 13.4.4 19-1.1 2.2-2 4.5-2 5 0 .9-2.4 3.3-22.4 22.3-4.8 4.6-14.1 13.6-20.5 20-11 11-23 20.9-25.1 20.9-.6 0-1 .3-1 .8 0 1.5-10.9 6.2-14.3 6.2-1.3 0-2.7.4-3.2.9-1.9 1.8-15.5 2.3-73.9 2.7-39.2.3-59.3.1-60-.6-.5-.5-3.1-1-5.7-1s-5.1-.5-5.4-1c-.3-.6-1.6-1-2.9-1-2.8 0-13.7-5.2-15.5-7.4-.7-.9-2-1.6-2.7-1.6-.8 0-1.4-.5-1.4-1 0-.6-.5-1-1.1-1-1.1 0-30-28.2-58.8-57.4-9.7-9.9-31.3-31.5-48-48-16.8-16.6-33-32.6-36-35.6-8.9-8.9-22.2-23.7-25.9-28.8-4.2-5.8-8.8-15.6-9.7-20.2-.3-1.9-1-6-1.6-9-2.6-14.3-4.6-182.4-2.9-245 1.3-45.9 2.1-51.6 7.9-56.7 3.1-2.7 9.3-3.1 13.7-.8"/>
</svg>
